{
	"patcher" : 	{
		"fileversion" : 1,
		"rect" : [ 567.0, 408.0, 1221.0, 585.0 ],
		"bglocked" : 0,
		"defrect" : [ 567.0, 408.0, 1221.0, 585.0 ],
		"openrect" : [ 0.0, 0.0, 0.0, 0.0 ],
		"openinpresentation" : 0,
		"default_fontsize" : 12.0,
		"default_fontface" : 0,
		"default_fontname" : "Arial",
		"gridonopen" : 0,
		"gridsize" : [ 15.0, 15.0 ],
		"gridsnaponopen" : 0,
		"toolbarvisible" : 1,
		"boxanimatetime" : 200,
		"imprint" : 0,
		"boxes" : [ 			{
				"box" : 				{
					"maxclass" : "flonum",
					"outlettype" : [ "float", "bang" ],
					"patching_rect" : [ 1185.0, 388.0, 50.0, 18.0 ],
					"id" : "obj-89",
					"fontname" : "Helvetica",
					"fontsize" : 12.0,
					"numinlets" : 1,
					"numoutlets" : 2
				}

			}
, 			{
				"box" : 				{
					"maxclass" : "newobj",
					"text" : "pak rotatexyz 1. 1. 1.",
					"outlettype" : [ "" ],
					"patching_rect" : [ 1114.0, 416.0, 122.0, 18.0 ],
					"id" : "obj-90",
					"fontname" : "Helvetica",
					"fontsize" : 12.0,
					"numinlets" : 4,
					"numoutlets" : 1
				}

			}
, 			{
				"box" : 				{
					"maxclass" : "flonum",
					"outlettype" : [ "float", "bang" ],
					"patching_rect" : [ 737.0, 389.0, 50.0, 18.0 ],
					"id" : "obj-88",
					"fontname" : "Helvetica",
					"fontsize" : 12.0,
					"numinlets" : 1,
					"numoutlets" : 2
				}

			}
, 			{
				"box" : 				{
					"maxclass" : "newobj",
					"text" : "pak rotatexyz 1. 1. 1.",
					"outlettype" : [ "" ],
					"patching_rect" : [ 666.0, 417.0, 122.0, 18.0 ],
					"id" : "obj-86",
					"fontname" : "Helvetica",
					"fontsize" : 12.0,
					"numinlets" : 4,
					"numoutlets" : 1
				}

			}
, 			{
				"box" : 				{
					"maxclass" : "flonum",
					"outlettype" : [ "float", "bang" ],
					"patching_rect" : [ 618.666748, 396.0, 50.0, 18.0 ],
					"id" : "obj-68",
					"fontname" : "Helvetica",
					"fontsize" : 12.0,
					"numinlets" : 1,
					"numoutlets" : 2
				}

			}
, 			{
				"box" : 				{
					"maxclass" : "flonum",
					"outlettype" : [ "float", "bang" ],
					"patching_rect" : [ 591.333374, 377.0, 50.0, 18.0 ],
					"id" : "obj-69",
					"fontname" : "Helvetica",
					"fontsize" : 12.0,
					"numinlets" : 1,
					"numoutlets" : 2
				}

			}
, 			{
				"box" : 				{
					"maxclass" : "newobj",
					"text" : "pak scale 1. 1. 1.",
					"outlettype" : [ "" ],
					"patching_rect" : [ 564.0, 416.0, 101.0, 18.0 ],
					"id" : "obj-70",
					"fontname" : "Helvetica",
					"fontsize" : 12.0,
					"numinlets" : 4,
					"numoutlets" : 1
				}

			}
, 			{
				"box" : 				{
					"maxclass" : "flonum",
					"outlettype" : [ "float", "bang" ],
					"patching_rect" : [ 512.0, 396.0, 50.0, 18.0 ],
					"id" : "obj-72",
					"fontname" : "Helvetica",
					"fontsize" : 12.0,
					"numinlets" : 1,
					"numoutlets" : 2
				}

			}
, 			{
				"box" : 				{
					"maxclass" : "flonum",
					"outlettype" : [ "float", "bang" ],
					"patching_rect" : [ 480.0, 377.0, 50.0, 18.0 ],
					"id" : "obj-73",
					"fontname" : "Helvetica",
					"fontsize" : 12.0,
					"numinlets" : 1,
					"numoutlets" : 2
				}

			}
, 			{
				"box" : 				{
					"maxclass" : "newobj",
					"text" : "pak position 0. 0. 0.",
					"outlettype" : [ "" ],
					"patching_rect" : [ 448.0, 416.0, 115.0, 18.0 ],
					"id" : "obj-74",
					"fontname" : "Helvetica",
					"fontsize" : 12.0,
					"numinlets" : 4,
					"numoutlets" : 1
				}

			}
, 			{
				"box" : 				{
					"maxclass" : "newobj",
					"text" : "jit.gl.videoplane AAA @blend_enable 1 @depth_enable 0 @layer 2",
					"outlettype" : [ "jit_matrix", "" ],
					"patching_rect" : [ 362.0, 440.0, 367.0, 20.0 ],
					"id" : "obj-75",
					"fontname" : "Arial",
					"fontsize" : 12.0,
					"numinlets" : 1,
					"numoutlets" : 2
				}

			}
, 			{
				"box" : 				{
					"maxclass" : "newobj",
					"text" : "jit.matrix 4 char 360 360",
					"outlettype" : [ "jit_matrix", "" ],
					"patching_rect" : [ 363.0, 338.0, 139.0, 20.0 ],
					"id" : "obj-76",
					"fontname" : "Arial",
					"fontsize" : 12.0,
					"numinlets" : 1,
					"numoutlets" : 2
				}

			}
, 			{
				"box" : 				{
					"maxclass" : "flonum",
					"maximum" : 1.0,
					"outlettype" : [ "float", "bang" ],
					"patching_rect" : [ 382.0, 360.714233, 41.0, 20.0 ],
					"id" : "obj-77",
					"fontname" : "Arial",
					"triscale" : 0.9,
					"fontsize" : 11.595187,
					"numinlets" : 1,
					"minimum" : 0.0,
					"numoutlets" : 2
				}

			}
, 			{
				"box" : 				{
					"maxclass" : "message",
					"text" : "scale $1",
					"outlettype" : [ "" ],
					"patching_rect" : [ 382.0, 385.071411, 54.0, 18.0 ],
					"id" : "obj-80",
					"fontname" : "Arial",
					"fontsize" : 11.595187,
					"numinlets" : 2,
					"numoutlets" : 1
				}

			}
, 			{
				"box" : 				{
					"maxclass" : "newobj",
					"text" : "jit.scalebias",
					"outlettype" : [ "jit_matrix", "" ],
					"patching_rect" : [ 363.0, 414.0, 73.0, 20.0 ],
					"id" : "obj-81",
					"fontname" : "Arial",
					"fontsize" : 12.0,
					"numinlets" : 1,
					"numoutlets" : 2
				}

			}
, 			{
				"box" : 				{
					"maxclass" : "message",
					"text" : "importmovie",
					"outlettype" : [ "" ],
					"patching_rect" : [ 363.0, 311.0, 76.0, 16.0 ],
					"id" : "obj-83",
					"fontname" : "Helvetica",
					"fontsize" : 12.0,
					"numinlets" : 2,
					"numoutlets" : 1
				}

			}
, 			{
				"box" : 				{
					"maxclass" : "flonum",
					"outlettype" : [ "float", "bang" ],
					"patching_rect" : [ 1066.666748, 396.0, 50.0, 18.0 ],
					"id" : "obj-65",
					"fontname" : "Helvetica",
					"fontsize" : 12.0,
					"numinlets" : 1,
					"numoutlets" : 2
				}

			}
, 			{
				"box" : 				{
					"maxclass" : "flonum",
					"outlettype" : [ "float", "bang" ],
					"patching_rect" : [ 1039.333374, 377.0, 50.0, 18.0 ],
					"id" : "obj-66",
					"fontname" : "Helvetica",
					"fontsize" : 12.0,
					"numinlets" : 1,
					"numoutlets" : 2
				}

			}
, 			{
				"box" : 				{
					"maxclass" : "newobj",
					"text" : "pak scale 1. 1. 1.",
					"outlettype" : [ "" ],
					"patching_rect" : [ 1012.0, 416.0, 101.0, 18.0 ],
					"id" : "obj-67",
					"fontname" : "Helvetica",
					"fontsize" : 12.0,
					"numinlets" : 4,
					"numoutlets" : 1
				}

			}
, 			{
				"box" : 				{
					"maxclass" : "flonum",
					"outlettype" : [ "float", "bang" ],
					"patching_rect" : [ 960.0, 396.0, 50.0, 18.0 ],
					"id" : "obj-62",
					"fontname" : "Helvetica",
					"fontsize" : 12.0,
					"numinlets" : 1,
					"numoutlets" : 2
				}

			}
, 			{
				"box" : 				{
					"maxclass" : "flonum",
					"outlettype" : [ "float", "bang" ],
					"patching_rect" : [ 928.0, 377.0, 50.0, 18.0 ],
					"id" : "obj-60",
					"fontname" : "Helvetica",
					"fontsize" : 12.0,
					"numinlets" : 1,
					"numoutlets" : 2
				}

			}
, 			{
				"box" : 				{
					"maxclass" : "newobj",
					"text" : "pak position 0. 0. 0.",
					"outlettype" : [ "" ],
					"patching_rect" : [ 896.0, 416.0, 115.0, 18.0 ],
					"id" : "obj-56",
					"fontname" : "Helvetica",
					"fontsize" : 12.0,
					"numinlets" : 4,
					"numoutlets" : 1
				}

			}
, 			{
				"box" : 				{
					"maxclass" : "newobj",
					"text" : "jit.gl.videoplane AAA @blend_enable 1 @depth_enable 0 @layer 3",
					"outlettype" : [ "jit_matrix", "" ],
					"patching_rect" : [ 810.0, 440.0, 367.0, 20.0 ],
					"id" : "obj-47",
					"fontname" : "Arial",
					"fontsize" : 12.0,
					"numinlets" : 1,
					"numoutlets" : 2
				}

			}
, 			{
				"box" : 				{
					"maxclass" : "newobj",
					"text" : "jit.matrix 4 char 360 360",
					"outlettype" : [ "jit_matrix", "" ],
					"patching_rect" : [ 811.0, 338.0, 139.0, 20.0 ],
					"id" : "obj-50",
					"fontname" : "Arial",
					"fontsize" : 12.0,
					"numinlets" : 1,
					"numoutlets" : 2
				}

			}
, 			{
				"box" : 				{
					"maxclass" : "flonum",
					"maximum" : 1.0,
					"outlettype" : [ "float", "bang" ],
					"patching_rect" : [ 830.0, 360.714233, 41.0, 20.0 ],
					"id" : "obj-52",
					"fontname" : "Arial",
					"triscale" : 0.9,
					"fontsize" : 11.595187,
					"numinlets" : 1,
					"minimum" : 0.0,
					"numoutlets" : 2
				}

			}
, 			{
				"box" : 				{
					"maxclass" : "message",
					"text" : "scale $1",
					"outlettype" : [ "" ],
					"patching_rect" : [ 830.0, 385.071411, 54.0, 18.0 ],
					"id" : "obj-53",
					"fontname" : "Arial",
					"fontsize" : 11.595187,
					"numinlets" : 2,
					"numoutlets" : 1
				}

			}
, 			{
				"box" : 				{
					"maxclass" : "newobj",
					"text" : "jit.scalebias",
					"outlettype" : [ "jit_matrix", "" ],
					"patching_rect" : [ 811.0, 414.0, 73.0, 20.0 ],
					"id" : "obj-54",
					"fontname" : "Arial",
					"fontsize" : 12.0,
					"numinlets" : 1,
					"numoutlets" : 2
				}

			}
, 			{
				"box" : 				{
					"maxclass" : "comment",
					"text" : "double-click here -->",
					"patching_rect" : [ 209.0, 291.0, 120.0, 20.0 ],
					"id" : "obj-7",
					"fontname" : "Arial",
					"fontsize" : 12.0,
					"numinlets" : 1,
					"numoutlets" : 0
				}

			}
, 			{
				"box" : 				{
					"maxclass" : "message",
					"text" : "getmoviedim",
					"outlettype" : [ "" ],
					"patching_rect" : [ 464.0, 81.0, 79.0, 18.0 ],
					"id" : "obj-6",
					"fontname" : "Arial",
					"fontsize" : 12.0,
					"numinlets" : 2,
					"numoutlets" : 1
				}

			}
, 			{
				"box" : 				{
					"maxclass" : "comment",
					"text" : "lower cpu load!",
					"patching_rect" : [ 186.0, 51.0, 91.0, 20.0 ],
					"id" : "obj-8",
					"fontname" : "Arial",
					"fontsize" : 12.0,
					"numinlets" : 1,
					"numoutlets" : 0
				}

			}
, 			{
				"box" : 				{
					"maxclass" : "newobj",
					"text" : "jit.change",
					"outlettype" : [ "jit_matrix", "" ],
					"patching_rect" : [ 425.0, 154.0, 62.0, 20.0 ],
					"id" : "obj-4",
					"fontname" : "Arial",
					"fontsize" : 12.0,
					"numinlets" : 1,
					"numoutlets" : 2
				}

			}
, 			{
				"box" : 				{
					"maxclass" : "newobj",
					"text" : "p map position fade etc",
					"outlettype" : [ "" ],
					"patching_rect" : [ 281.0, 178.0, 135.0, 20.0 ],
					"id" : "obj-126",
					"fontname" : "Arial",
					"fontsize" : 12.0,
					"numinlets" : 0,
					"numoutlets" : 1,
					"patcher" : 					{
						"fileversion" : 1,
						"rect" : [ 283.0, 88.0, 402.0, 241.0 ],
						"bglocked" : 0,
						"defrect" : [ 283.0, 88.0, 402.0, 241.0 ],
						"openrect" : [ 0.0, 0.0, 0.0, 0.0 ],
						"openinpresentation" : 0,
						"default_fontsize" : 12.0,
						"default_fontface" : 0,
						"default_fontname" : "Arial",
						"gridonopen" : 0,
						"gridsize" : [ 15.0, 15.0 ],
						"gridsnaponopen" : 0,
						"toolbarvisible" : 1,
						"boxanimatetime" : 200,
						"imprint" : 0,
						"boxes" : [ 							{
								"box" : 								{
									"maxclass" : "newobj",
									"text" : "loadmess 1",
									"outlettype" : [ "" ],
									"patching_rect" : [ 237.0, 140.0, 72.0, 20.0 ],
									"id" : "obj-2",
									"fontname" : "Arial",
									"fontsize" : 12.0,
									"numinlets" : 1,
									"numoutlets" : 1
								}

							}
, 							{
								"box" : 								{
									"maxclass" : "preset",
									"outlettype" : [ "preset", "int", "preset", "int" ],
									"patching_rect" : [ 237.0, 167.0, 20.0, 19.0 ],
									"id" : "obj-1",
									"numinlets" : 1,
									"numoutlets" : 4,
									"preset_data" : [ 										{
											"number" : 1,
											"data" : [ 5, "obj-6", "flonum", "float", 0.51, 5, "obj-8", "flonum", "float", 1.0, 5, "obj-12", "flonum", "float", -0.15, 5, "obj-13", "flonum", "float", -0.28 ]
										}
 ]
								}

							}
, 							{
								"box" : 								{
									"maxclass" : "flonum",
									"outlettype" : [ "float", "bang" ],
									"patching_rect" : [ 117.0, 63.0, 43.0, 23.0 ],
									"id" : "obj-13",
									"fontname" : "Geneva",
									"triscale" : 0.9,
									"htextcolor" : [ 0.870588, 0.870588, 0.870588, 1.0 ],
									"fontsize" : 12.0,
									"numinlets" : 1,
									"bgcolor" : [ 0.866667, 0.866667, 0.866667, 1.0 ],
									"numoutlets" : 2
								}

							}
, 							{
								"box" : 								{
									"maxclass" : "flonum",
									"outlettype" : [ "float", "bang" ],
									"patching_rect" : [ 71.0, 63.0, 43.0, 23.0 ],
									"id" : "obj-12",
									"fontname" : "Geneva",
									"triscale" : 0.9,
									"htextcolor" : [ 0.870588, 0.870588, 0.870588, 1.0 ],
									"fontsize" : 12.0,
									"numinlets" : 1,
									"bgcolor" : [ 0.866667, 0.866667, 0.866667, 1.0 ],
									"numoutlets" : 2
								}

							}
, 							{
								"box" : 								{
									"maxclass" : "flonum",
									"maximum" : 1.0,
									"outlettype" : [ "float", "bang" ],
									"patching_rect" : [ 212.0, 63.0, 50.0, 20.0 ],
									"id" : "obj-8",
									"fontname" : "Arial",
									"fontsize" : 12.0,
									"numinlets" : 1,
									"minimum" : 0.0,
									"numoutlets" : 2
								}

							}
, 							{
								"box" : 								{
									"maxclass" : "message",
									"text" : "color 1 1 1 $1",
									"outlettype" : [ "" ],
									"patching_rect" : [ 212.0, 87.0, 83.0, 18.0 ],
									"id" : "obj-4",
									"fontname" : "Arial",
									"fontsize" : 12.0,
									"numinlets" : 2,
									"numoutlets" : 1
								}

							}
, 							{
								"box" : 								{
									"maxclass" : "flonum",
									"outlettype" : [ "float", "bang" ],
									"patching_rect" : [ 163.0, 63.0, 43.0, 23.0 ],
									"id" : "obj-6",
									"fontname" : "Geneva",
									"triscale" : 0.9,
									"htextcolor" : [ 0.870588, 0.870588, 0.870588, 1.0 ],
									"fontsize" : 12.0,
									"numinlets" : 1,
									"bgcolor" : [ 0.866667, 0.866667, 0.866667, 1.0 ],
									"numoutlets" : 2
								}

							}
, 							{
								"box" : 								{
									"maxclass" : "newobj",
									"text" : "pak position 0. 0. 0.",
									"outlettype" : [ "" ],
									"patching_rect" : [ 25.0, 87.0, 157.0, 20.0 ],
									"id" : "obj-7",
									"fontname" : "Arial",
									"fontsize" : 12.0,
									"numinlets" : 4,
									"numoutlets" : 1
								}

							}
, 							{
								"box" : 								{
									"maxclass" : "outlet",
									"patching_rect" : [ 113.5, 167.0, 25.0, 25.0 ],
									"id" : "obj-125",
									"numinlets" : 1,
									"numoutlets" : 0,
									"comment" : ""
								}

							}
 ],
						"lines" : [ 							{
								"patchline" : 								{
									"source" : [ "obj-2", 0 ],
									"destination" : [ "obj-1", 0 ],
									"hidden" : 0,
									"midpoints" : [  ]
								}

							}
, 							{
								"patchline" : 								{
									"source" : [ "obj-4", 0 ],
									"destination" : [ "obj-125", 0 ],
									"hidden" : 0,
									"midpoints" : [  ]
								}

							}
, 							{
								"patchline" : 								{
									"source" : [ "obj-7", 0 ],
									"destination" : [ "obj-125", 0 ],
									"hidden" : 0,
									"midpoints" : [  ]
								}

							}
, 							{
								"patchline" : 								{
									"source" : [ "obj-13", 0 ],
									"destination" : [ "obj-7", 2 ],
									"hidden" : 0,
									"midpoints" : [  ]
								}

							}
, 							{
								"patchline" : 								{
									"source" : [ "obj-12", 0 ],
									"destination" : [ "obj-7", 1 ],
									"hidden" : 0,
									"midpoints" : [  ]
								}

							}
, 							{
								"patchline" : 								{
									"source" : [ "obj-8", 0 ],
									"destination" : [ "obj-4", 0 ],
									"hidden" : 0,
									"midpoints" : [  ]
								}

							}
, 							{
								"patchline" : 								{
									"source" : [ "obj-6", 0 ],
									"destination" : [ "obj-7", 3 ],
									"hidden" : 0,
									"midpoints" : [  ]
								}

							}
 ]
					}
,
					"saved_object_attributes" : 					{
						"default_fontface" : 0,
						"fontname" : "Arial",
						"default_fontname" : "Arial",
						"globalpatchername" : "",
						"default_fontsize" : 12.0,
						"fontface" : 0,
						"fontsize" : 12.0
					}

				}

			}
, 			{
				"box" : 				{
					"maxclass" : "newobj",
					"text" : "r render",
					"outlettype" : [ "" ],
					"patching_rect" : [ 31.0, 185.0, 53.0, 20.0 ],
					"id" : "obj-103",
					"fontname" : "Arial",
					"fontsize" : 12.0,
					"numinlets" : 0,
					"numoutlets" : 1
				}

			}
, 			{
				"box" : 				{
					"maxclass" : "newobj",
					"text" : "r layer2",
					"outlettype" : [ "" ],
					"patching_rect" : [ 372.0, 206.0, 51.0, 20.0 ],
					"id" : "obj-102",
					"fontname" : "Arial",
					"fontsize" : 12.0,
					"numinlets" : 0,
					"numoutlets" : 1
				}

			}
, 			{
				"box" : 				{
					"maxclass" : "comment",
					"text" : "load map here",
					"patching_rect" : [ 429.0, 53.0, 87.0, 20.0 ],
					"id" : "obj-71",
					"fontname" : "Arial",
					"fontsize" : 12.0,
					"numinlets" : 1,
					"numoutlets" : 0
				}

			}
, 			{
				"box" : 				{
					"maxclass" : "newobj",
					"text" : "pak scale 1. 1. 1.",
					"outlettype" : [ "" ],
					"patching_rect" : [ 584.0, 195.0, 101.0, 20.0 ],
					"id" : "obj-22",
					"fontname" : "Arial",
					"fontsize" : 12.0,
					"numinlets" : 4,
					"numoutlets" : 1
				}

			}
, 			{
				"box" : 				{
					"maxclass" : "newobj",
					"text" : "expr $f1 / $f2",
					"outlettype" : [ "" ],
					"patching_rect" : [ 610.0, 173.0, 81.0, 20.0 ],
					"id" : "obj-1",
					"fontname" : "Arial",
					"fontsize" : 12.0,
					"numinlets" : 2,
					"numoutlets" : 1
				}

			}
, 			{
				"box" : 				{
					"maxclass" : "newobj",
					"text" : "prepend dim",
					"outlettype" : [ "" ],
					"patching_rect" : [ 529.0, 172.0, 77.0, 20.0 ],
					"id" : "obj-59",
					"fontname" : "Arial",
					"fontsize" : 12.0,
					"numinlets" : 1,
					"numoutlets" : 1
				}

			}
, 			{
				"box" : 				{
					"maxclass" : "newobj",
					"text" : "route moviedim",
					"outlettype" : [ "", "" ],
					"patching_rect" : [ 529.0, 147.0, 93.0, 20.0 ],
					"id" : "obj-58",
					"fontname" : "Arial",
					"fontsize" : 12.0,
					"numinlets" : 1,
					"numoutlets" : 2
				}

			}
, 			{
				"box" : 				{
					"maxclass" : "jit.pwindow",
					"outlettype" : [ "", "" ],
					"patching_rect" : [ 48.0, 395.0, 184.0, 138.0 ],
					"presentation" : 1,
					"id" : "obj-3",
					"numinlets" : 1,
					"idlemouse" : 1,
					"presentation_rect" : [ 15.0, 15.0, 920.0, 690.0 ],
					"numoutlets" : 2,
					"interp" : 1,
					"name" : "AAA"
				}

			}
, 			{
				"box" : 				{
					"maxclass" : "message",
					"text" : "name AAA",
					"outlettype" : [ "" ],
					"patching_rect" : [ 44.0, 361.0, 67.0, 18.0 ],
					"id" : "obj-2",
					"fontname" : "Arial",
					"fontsize" : 12.0,
					"numinlets" : 2,
					"numoutlets" : 1
				}

			}
, 			{
				"box" : 				{
					"maxclass" : "newobj",
					"text" : "t b b erase",
					"outlettype" : [ "bang", "bang", "erase" ],
					"patching_rect" : [ 80.0, 128.0, 67.0, 20.0 ],
					"id" : "obj-25",
					"fontname" : "Arial",
					"fontsize" : 12.0,
					"numinlets" : 1,
					"numoutlets" : 3
				}

			}
, 			{
				"box" : 				{
					"maxclass" : "newobj",
					"text" : "jit.gl.videoplane AAA @blend_enable 1 @depth_enable 0 @layer 1",
					"outlettype" : [ "jit_matrix", "" ],
					"patching_rect" : [ 429.0, 230.0, 367.0, 20.0 ],
					"id" : "obj-24",
					"fontname" : "Arial",
					"fontsize" : 12.0,
					"numinlets" : 1,
					"numoutlets" : 2
				}

			}
, 			{
				"box" : 				{
					"maxclass" : "newobj",
					"text" : "jit.gl.render AAA @erase_color 0. 0. 0. 1.",
					"outlettype" : [ "bang", "" ],
					"patching_rect" : [ 79.0, 227.0, 227.0, 20.0 ],
					"id" : "obj-21",
					"fontname" : "Arial",
					"fontsize" : 12.0,
					"numinlets" : 1,
					"numoutlets" : 2
				}

			}
, 			{
				"box" : 				{
					"maxclass" : "newobj",
					"text" : "r q1",
					"outlettype" : [ "" ],
					"patching_rect" : [ 549.0, 81.0, 31.0, 20.0 ],
					"id" : "obj-48",
					"fontname" : "Arial",
					"fontsize" : 12.0,
					"numinlets" : 0,
					"numoutlets" : 1
				}

			}
, 			{
				"box" : 				{
					"maxclass" : "message",
					"text" : ";\rq1 bang,;\rq2 bang",
					"linecount" : 3,
					"outlettype" : [ "" ],
					"patching_rect" : [ 162.0, 122.0, 62.0, 46.0 ],
					"id" : "obj-44",
					"fontname" : "Arial",
					"fontsize" : 12.0,
					"numinlets" : 2,
					"numoutlets" : 1
				}

			}
, 			{
				"box" : 				{
					"maxclass" : "newobj",
					"text" : "jit.qball",
					"outlettype" : [ "", "" ],
					"patching_rect" : [ 80.0, 84.0, 48.0, 20.0 ],
					"id" : "obj-42",
					"fontname" : "Arial",
					"fontsize" : 12.0,
					"numinlets" : 1,
					"numoutlets" : 2
				}

			}
, 			{
				"box" : 				{
					"maxclass" : "message",
					"text" : "read",
					"outlettype" : [ "" ],
					"patching_rect" : [ 425.0, 81.0, 35.0, 18.0 ],
					"id" : "obj-38",
					"fontname" : "Arial",
					"fontsize" : 12.0,
					"numinlets" : 2,
					"numoutlets" : 1
				}

			}
, 			{
				"box" : 				{
					"maxclass" : "newobj",
					"text" : "jit.qt.movie @interp 1",
					"outlettype" : [ "jit_matrix", "" ],
					"patching_rect" : [ 425.0, 125.0, 123.0, 20.0 ],
					"id" : "obj-36",
					"fontname" : "Arial",
					"fontsize" : 12.0,
					"numinlets" : 1,
					"numoutlets" : 2
				}

			}
, 			{
				"box" : 				{
					"maxclass" : "toggle",
					"outlettype" : [ "int" ],
					"patching_rect" : [ 80.0, 38.0, 20.0, 20.0 ],
					"id" : "obj-79",
					"numinlets" : 1,
					"numoutlets" : 1
				}

			}
, 			{
				"box" : 				{
					"maxclass" : "newobj",
					"text" : "qmetro 30",
					"outlettype" : [ "bang" ],
					"patching_rect" : [ 80.0, 62.0, 65.0, 20.0 ],
					"id" : "obj-78",
					"fontname" : "Arial",
					"fontsize" : 12.0,
					"numinlets" : 2,
					"numoutlets" : 1
				}

			}
, 			{
				"box" : 				{
					"maxclass" : "preset",
					"outlettype" : [ "preset", "int", "preset", "int" ],
					"patching_rect" : [ 715.0, 64.0, 19.0, 17.0 ],
					"id" : "obj-28",
					"numinlets" : 1,
					"numoutlets" : 4,
					"preset_data" : [ 						{
							"number" : 1,
							"data" : [ 5, "<invalid>", "flonum", "float", 1.0, 5, "obj-65", "flonum", "float", 1.0, 5, "obj-44", "flonum", "float", 1.0, 5, "obj-90", "number", "int", 0, 5, "obj-89", "number", "int", 145, 5, "obj-88", "number", "int", 167, 5, "<invalid>", "number", "int", 412, 5, "<invalid>", "number", "int", 0, 5, "<invalid>", "number", "int", 13, 5, "<invalid>", "number", "int", 303, 5, "<invalid>", "number", "int", 248, 5, "<invalid>", "number", "int", 0, 5, "<invalid>", "number", "int", 0, 5, "obj-8", "number", "int", 360, 5, "obj-7", "number", "int", 360 ]
						}
 ]
				}

			}
, 			{
				"box" : 				{
					"maxclass" : "newobj",
					"text" : "loadmess 1",
					"outlettype" : [ "" ],
					"patching_rect" : [ 715.0, 37.0, 72.0, 20.0 ],
					"id" : "obj-30",
					"fontname" : "Arial",
					"fontsize" : 12.0,
					"numinlets" : 1,
					"numoutlets" : 1
				}

			}
, 			{
				"box" : 				{
					"maxclass" : "newobj",
					"text" : "r q2",
					"outlettype" : [ "" ],
					"patching_rect" : [ 575.0, 258.0, 31.0, 20.0 ],
					"id" : "obj-32",
					"fontname" : "Arial",
					"fontsize" : 12.0,
					"numinlets" : 0,
					"numoutlets" : 1
				}

			}
, 			{
				"box" : 				{
					"maxclass" : "message",
					"text" : "importmovie",
					"outlettype" : [ "" ],
					"patching_rect" : [ 811.0, 311.0, 76.0, 16.0 ],
					"id" : "obj-55",
					"fontname" : "Helvetica",
					"fontsize" : 12.0,
					"numinlets" : 2,
					"numoutlets" : 1
				}

			}
 ],
		"lines" : [ 			{
				"patchline" : 				{
					"source" : [ "obj-90", 0 ],
					"destination" : [ "obj-47", 0 ],
					"hidden" : 0,
					"midpoints" : [ 1123.5, 436.5, 819.5, 436.5 ]
				}

			}
, 			{
				"patchline" : 				{
					"source" : [ "obj-89", 0 ],
					"destination" : [ "obj-90", 3 ],
					"hidden" : 0,
					"midpoints" : [  ]
				}

			}
, 			{
				"patchline" : 				{
					"source" : [ "obj-86", 0 ],
					"destination" : [ "obj-75", 0 ],
					"hidden" : 0,
					"midpoints" : [ 675.5, 436.0, 371.5, 436.0 ]
				}

			}
, 			{
				"patchline" : 				{
					"source" : [ "obj-88", 0 ],
					"destination" : [ "obj-86", 3 ],
					"hidden" : 0,
					"midpoints" : [  ]
				}

			}
, 			{
				"patchline" : 				{
					"source" : [ "obj-126", 0 ],
					"destination" : [ "obj-24", 0 ],
					"hidden" : 0,
					"midpoints" : [ 290.5, 201.0, 438.5, 201.0 ]
				}

			}
, 			{
				"patchline" : 				{
					"source" : [ "obj-102", 0 ],
					"destination" : [ "obj-24", 0 ],
					"hidden" : 0,
					"midpoints" : [  ]
				}

			}
, 			{
				"patchline" : 				{
					"source" : [ "obj-22", 0 ],
					"destination" : [ "obj-24", 0 ],
					"hidden" : 0,
					"midpoints" : [ 593.5, 217.0, 434.0, 217.0, 434.0, 223.0, 438.5, 223.0 ]
				}

			}
, 			{
				"patchline" : 				{
					"source" : [ "obj-4", 0 ],
					"destination" : [ "obj-24", 0 ],
					"hidden" : 0,
					"midpoints" : [  ]
				}

			}
, 			{
				"patchline" : 				{
					"source" : [ "obj-67", 0 ],
					"destination" : [ "obj-47", 0 ],
					"hidden" : 0,
					"midpoints" : [ 1021.5, 436.0, 819.5, 436.0 ]
				}

			}
, 			{
				"patchline" : 				{
					"source" : [ "obj-56", 0 ],
					"destination" : [ "obj-47", 0 ],
					"hidden" : 0,
					"midpoints" : [ 905.5, 436.5, 819.5, 436.5 ]
				}

			}
, 			{
				"patchline" : 				{
					"source" : [ "obj-54", 0 ],
					"destination" : [ "obj-47", 0 ],
					"hidden" : 0,
					"midpoints" : [  ]
				}

			}
, 			{
				"patchline" : 				{
					"source" : [ "obj-81", 0 ],
					"destination" : [ "obj-75", 0 ],
					"hidden" : 0,
					"midpoints" : [  ]
				}

			}
, 			{
				"patchline" : 				{
					"source" : [ "obj-74", 0 ],
					"destination" : [ "obj-75", 0 ],
					"hidden" : 0,
					"midpoints" : [ 457.5, 436.5, 371.5, 436.5 ]
				}

			}
, 			{
				"patchline" : 				{
					"source" : [ "obj-70", 0 ],
					"destination" : [ "obj-75", 0 ],
					"hidden" : 0,
					"midpoints" : [ 573.5, 436.0, 371.5, 436.0 ]
				}

			}
, 			{
				"patchline" : 				{
					"source" : [ "obj-50", 0 ],
					"destination" : [ "obj-54", 0 ],
					"hidden" : 0,
					"midpoints" : [  ]
				}

			}
, 			{
				"patchline" : 				{
					"source" : [ "obj-32", 0 ],
					"destination" : [ "obj-50", 0 ],
					"hidden" : 0,
					"midpoints" : [  ]
				}

			}
, 			{
				"patchline" : 				{
					"source" : [ "obj-55", 0 ],
					"destination" : [ "obj-50", 0 ],
					"hidden" : 0,
					"midpoints" : [  ]
				}

			}
, 			{
				"patchline" : 				{
					"source" : [ "obj-83", 0 ],
					"destination" : [ "obj-76", 0 ],
					"hidden" : 0,
					"midpoints" : [  ]
				}

			}
, 			{
				"patchline" : 				{
					"source" : [ "obj-76", 0 ],
					"destination" : [ "obj-81", 0 ],
					"hidden" : 0,
					"midpoints" : [  ]
				}

			}
, 			{
				"patchline" : 				{
					"source" : [ "obj-32", 0 ],
					"destination" : [ "obj-76", 0 ],
					"hidden" : 0,
					"midpoints" : [  ]
				}

			}
, 			{
				"patchline" : 				{
					"source" : [ "obj-80", 0 ],
					"destination" : [ "obj-81", 0 ],
					"hidden" : 0,
					"midpoints" : [ 391.5, 406.0, 372.5, 406.0 ]
				}

			}
, 			{
				"patchline" : 				{
					"source" : [ "obj-77", 0 ],
					"destination" : [ "obj-80", 0 ],
					"hidden" : 0,
					"midpoints" : [  ]
				}

			}
, 			{
				"patchline" : 				{
					"source" : [ "obj-73", 0 ],
					"destination" : [ "obj-74", 1 ],
					"hidden" : 0,
					"midpoints" : [  ]
				}

			}
, 			{
				"patchline" : 				{
					"source" : [ "obj-72", 0 ],
					"destination" : [ "obj-74", 2 ],
					"hidden" : 0,
					"midpoints" : [  ]
				}

			}
, 			{
				"patchline" : 				{
					"source" : [ "obj-69", 0 ],
					"destination" : [ "obj-70", 1 ],
					"hidden" : 0,
					"midpoints" : [  ]
				}

			}
, 			{
				"patchline" : 				{
					"source" : [ "obj-68", 0 ],
					"destination" : [ "obj-70", 2 ],
					"hidden" : 0,
					"midpoints" : [  ]
				}

			}
, 			{
				"patchline" : 				{
					"source" : [ "obj-65", 0 ],
					"destination" : [ "obj-67", 2 ],
					"hidden" : 0,
					"midpoints" : [  ]
				}

			}
, 			{
				"patchline" : 				{
					"source" : [ "obj-66", 0 ],
					"destination" : [ "obj-67", 1 ],
					"hidden" : 0,
					"midpoints" : [  ]
				}

			}
, 			{
				"patchline" : 				{
					"source" : [ "obj-62", 0 ],
					"destination" : [ "obj-56", 2 ],
					"hidden" : 0,
					"midpoints" : [  ]
				}

			}
, 			{
				"patchline" : 				{
					"source" : [ "obj-60", 0 ],
					"destination" : [ "obj-56", 1 ],
					"hidden" : 0,
					"midpoints" : [  ]
				}

			}
, 			{
				"patchline" : 				{
					"source" : [ "obj-52", 0 ],
					"destination" : [ "obj-53", 0 ],
					"hidden" : 0,
					"midpoints" : [  ]
				}

			}
, 			{
				"patchline" : 				{
					"source" : [ "obj-53", 0 ],
					"destination" : [ "obj-54", 0 ],
					"hidden" : 0,
					"midpoints" : [ 839.5, 406.0, 820.5, 406.0 ]
				}

			}
, 			{
				"patchline" : 				{
					"source" : [ "obj-30", 0 ],
					"destination" : [ "obj-28", 0 ],
					"hidden" : 0,
					"midpoints" : [  ]
				}

			}
, 			{
				"patchline" : 				{
					"source" : [ "obj-6", 0 ],
					"destination" : [ "obj-36", 0 ],
					"hidden" : 0,
					"midpoints" : [ 473.5, 111.0, 434.5, 111.0 ]
				}

			}
, 			{
				"patchline" : 				{
					"source" : [ "obj-25", 2 ],
					"destination" : [ "obj-21", 0 ],
					"hidden" : 0,
					"midpoints" : [  ]
				}

			}
, 			{
				"patchline" : 				{
					"source" : [ "obj-25", 0 ],
					"destination" : [ "obj-21", 0 ],
					"hidden" : 0,
					"midpoints" : [  ]
				}

			}
, 			{
				"patchline" : 				{
					"source" : [ "obj-103", 0 ],
					"destination" : [ "obj-21", 0 ],
					"hidden" : 0,
					"midpoints" : [  ]
				}

			}
, 			{
				"patchline" : 				{
					"source" : [ "obj-42", 0 ],
					"destination" : [ "obj-25", 0 ],
					"hidden" : 0,
					"midpoints" : [  ]
				}

			}
, 			{
				"patchline" : 				{
					"source" : [ "obj-36", 0 ],
					"destination" : [ "obj-4", 0 ],
					"hidden" : 0,
					"midpoints" : [  ]
				}

			}
, 			{
				"patchline" : 				{
					"source" : [ "obj-1", 0 ],
					"destination" : [ "obj-22", 1 ],
					"hidden" : 0,
					"midpoints" : [  ]
				}

			}
, 			{
				"patchline" : 				{
					"source" : [ "obj-58", 0 ],
					"destination" : [ "obj-1", 0 ],
					"hidden" : 0,
					"midpoints" : [ 538.5, 169.0, 619.5, 169.0 ]
				}

			}
, 			{
				"patchline" : 				{
					"source" : [ "obj-59", 0 ],
					"destination" : [ "obj-36", 0 ],
					"hidden" : 0,
					"midpoints" : [ 538.5, 193.0, 422.0, 193.0, 422.0, 121.0, 434.5, 121.0 ]
				}

			}
, 			{
				"patchline" : 				{
					"source" : [ "obj-58", 0 ],
					"destination" : [ "obj-59", 0 ],
					"hidden" : 0,
					"midpoints" : [  ]
				}

			}
, 			{
				"patchline" : 				{
					"source" : [ "obj-36", 1 ],
					"destination" : [ "obj-58", 0 ],
					"hidden" : 0,
					"midpoints" : [  ]
				}

			}
, 			{
				"patchline" : 				{
					"source" : [ "obj-48", 0 ],
					"destination" : [ "obj-36", 0 ],
					"hidden" : 0,
					"midpoints" : [ 558.5, 111.0, 434.5, 111.0 ]
				}

			}
, 			{
				"patchline" : 				{
					"source" : [ "obj-38", 0 ],
					"destination" : [ "obj-36", 0 ],
					"hidden" : 0,
					"midpoints" : [ 434.5, 99.0, 434.5, 99.0 ]
				}

			}
, 			{
				"patchline" : 				{
					"source" : [ "obj-42", 0 ],
					"destination" : [ "obj-44", 0 ],
					"hidden" : 0,
					"midpoints" : [ 89.5, 115.0, 171.5, 115.0 ]
				}

			}
, 			{
				"patchline" : 				{
					"source" : [ "obj-2", 0 ],
					"destination" : [ "obj-3", 0 ],
					"hidden" : 0,
					"midpoints" : [ 53.5, 381.0, 57.5, 381.0 ]
				}

			}
, 			{
				"patchline" : 				{
					"source" : [ "obj-79", 0 ],
					"destination" : [ "obj-78", 0 ],
					"hidden" : 0,
					"midpoints" : [  ]
				}

			}
, 			{
				"patchline" : 				{
					"source" : [ "obj-78", 0 ],
					"destination" : [ "obj-42", 0 ],
					"hidden" : 0,
					"midpoints" : [  ]
				}

			}
 ]
	}

}
